<svg version="1.1" xmlns="http://www.w3.org/2000/svg" viewBox="-269.7 -3766.8999999999996 4538.9 4327.599999999999"><desc>Created with Snap</desc><defs></defs><g><rect x="-269.7" y="-3766.8999999999996" width="4538.9" height="4327.599999999999" fill="#1c391b" style=""></rect><g transform="matrix(0.389,0,0,0.389,406.2124,-3874.2644)">
<g>
	<path d="M4420.813,2317.79c3.686-0.136,7.509,0.273,11.059,1.092c9.421,2.048,17.886,6.69,24.576,13.38l0.819,0.819
		c2.731,3.004,5.052,6.008,7.1,9.557c3.823,6.69,6.007,14.199,6.28,22.392c0.137,4.096-0.137,7.919-0.956,11.878
		c-2.048,9.421-6.69,17.886-13.38,24.576l-0.819,0.819c-3.003,2.731-6.007,5.052-9.557,7.1c-6.007,3.413-12.834,5.598-20.07,6.144
		c-191.283,18.022-376.423,45.056-555.418,80.555c59.802,88.473,155.648,161.928,284.262,213.811
		c13.653,5.598,27.443,10.65,41.097,15.565c25.532,8.875,38.912,36.727,30.037,62.259s-36.728,38.912-62.259,30.037
		c-15.838-5.598-30.993-11.196-45.329-17.067c-162.748-65.673-280.986-163.703-349.798-283.443
		c-269.517,58.982-524.698,137.216-765.406,233.199c68.403,94.754,170.394,175.309,303.513,237.158
		c53.794,24.986,112.094,46.831,174.899,65.126c25.941,7.509,40.823,34.679,33.314,60.621s-34.679,40.823-60.621,33.314
		c-68.403-20.071-131.345-43.554-188.689-70.178c-157.56-73.182-276.753-171.076-355.123-288.085
		c-236.203,100.215-457.933,217.634-664.781,350.481c126.566,209.579,341.743,382.703,636.655,501.76
		c28.672,11.605,57.617,22.528,87.108,32.768c25.532,8.875,38.912,36.727,30.037,62.259c-8.875,25.532-36.728,38.912-62.259,30.037
		c-31.539-11.059-61.986-22.528-91.341-34.406c-313.754-126.703-544.085-312.525-681.984-538.897
		c-4.642,3.14-9.421,6.281-14.063,9.557c-329.865,224.461-620.134,489.335-869.99,786.705
		c239.343,255.591,639.386,423.39,1054.72,459.298c398.131,34.406,808.414-52.838,1101.414-300.783
		c940.988-796.262,1577.643-1172.412,2068.48-1270.716c447.147-89.566,771.687,47.65,1089.673,308.429
		c-86.835-314.846-229.513-614.537-423.527-882.824c-216.132-298.735-496.025-558.694-833.672-757.624
		c-655.497-385.98-1405.338-469.811-2087.868-293.137s-1297.613,613.581-1683.593,1268.941
		c-114.552,194.697-202.615,397.858-265.148,605.389c-53.658,178.313-88.474,359.492-104.994,540.808
		c243.576-246.852,517.325-466.261,819.883-652.629c17.067-10.513,34.133-20.89,51.337-31.13
		c-76.186-229.513-70.315-487.834,25.122-760.218c8.328-23.894,17.34-47.514,26.76-70.998c10.104-25.122,38.502-37.273,63.625-27.17
		c25.122,10.103,37.274,38.502,27.17,63.625c-9.148,22.665-17.613,44.919-25.259,66.765
		c-85.197,243.302-93.525,473.225-30.993,677.615c212.446-120.422,438.135-225.144,676.932-312.525
		c-39.594-129.16-38.366-272.93,6.417-425.711c14.746-50.244,33.86-100.898,57.617-151.961
		c11.332-24.576,40.414-35.226,64.99-23.893c24.576,11.332,35.226,40.414,23.893,64.99c-21.982,47.377-39.595,93.525-52.565,138.172
		c-38.775,132.301-40.687,255.727-7.919,365.909c250.675-85.879,515.277-152.781,793.395-198.929
		c-27.853-107.725-21.299-226.509,22.255-350.891c4.233-12.151,8.738-23.893,13.38-35.499c10.104-25.122,38.502-37.274,63.625-27.17
		c25.122,10.104,37.274,38.502,27.17,63.625c-4.369,10.786-8.329,21.299-11.878,31.266
		c-38.093,108.954-43.145,211.763-17.476,303.514c195.789-28.809,398.131-47.514,606.754-55.296h0.819L4420.813,2317.79z
		 M3771.324,5874.347c-3.686,0.137-7.509-0.273-11.059-1.092c-9.421-2.048-17.886-6.69-24.576-13.38l-0.819-0.819
		c-2.731-3.004-5.052-6.008-7.1-9.558c-3.823-6.69-6.007-14.199-6.281-22.392c-0.136-4.096,0.137-7.918,0.956-11.878
		c2.048-9.421,6.69-17.886,13.38-24.576l0.819-0.819c3.004-2.73,6.008-5.052,9.557-7.1c6.008-3.414,12.834-5.598,20.07-6.144
		c191.283-18.022,376.422-45.056,555.417-80.555c-59.801-88.474-155.648-161.929-284.262-213.811
		c-13.653-5.598-27.443-10.65-41.096-15.565c-25.532-8.875-38.912-36.728-30.037-62.259c8.875-25.532,36.727-38.912,62.259-30.037
		c15.838,5.598,30.993,11.196,45.329,17.066c162.748,65.673,280.986,163.704,349.799,283.443
		c269.517-58.982,524.697-137.216,765.406-233.199c-68.403-94.754-170.394-175.309-303.514-237.158
		c-53.794-24.985-112.094-46.831-174.899-65.126c-25.941-7.509-40.824-34.679-33.314-60.621s34.68-40.824,60.621-33.314
		c68.403,20.071,131.345,43.554,188.689,70.178c157.56,73.182,276.753,171.076,355.123,288.085
		c236.203-100.215,457.933-217.634,664.781-350.481c-126.566-209.579-341.743-382.703-636.655-501.76
		c-28.672-11.605-57.617-22.528-87.108-32.768c-25.532-8.875-38.912-36.727-30.037-62.259c8.875-25.532,36.728-38.912,62.259-30.038
		c31.539,11.059,61.986,22.528,91.341,34.406c313.753,126.703,544.085,312.525,681.984,538.897
		c4.642-3.141,9.421-6.281,14.063-9.558c329.864-224.46,620.134-489.335,869.99-786.705
		c-239.343-255.59-639.386-423.39-1054.72-459.298c-398.131-34.406-808.414,52.838-1101.414,300.783
		c-940.988,796.263-1577.643,1172.412-2068.48,1270.716c-447.147,89.566-771.686-47.65-1089.672-308.429
		c86.835,314.846,229.513,614.537,423.663,882.824c216.132,298.735,496.026,558.695,833.673,757.624l0,0
		c655.496,385.98,1405.338,469.675,2087.867,293.137c682.53-176.674,1297.613-613.581,1683.593-1268.941l0.137-0.273
		c114.551-194.56,202.479-397.722,265.011-605.116c53.657-178.313,88.474-359.492,104.994-540.809
		c-243.576,246.853-517.325,466.261-819.883,652.629c-17.067,10.513-34.133,20.89-51.336,31.129
		c76.186,229.513,70.314,487.834-25.122,760.218c-8.329,23.894-17.34,47.514-26.761,70.998
		c-10.104,25.122-38.502,37.273-63.625,27.17s-37.273-38.502-27.17-63.625c9.148-22.665,17.613-44.919,25.259-66.765
		c85.197-243.303,93.525-473.225,30.993-677.615c-212.446,120.422-438.135,225.144-676.932,312.525
		c39.595,129.161,38.366,272.93-6.417,425.711c-14.746,50.244-33.86,100.898-57.617,151.961
		c-11.333,24.576-40.414,35.226-64.99,23.894c-24.576-11.333-35.226-40.414-23.894-64.99
		c21.982-47.377,39.595-93.525,52.565-138.172c38.775-132.301,40.687-255.727,7.919-365.909
		c-250.675,85.879-515.277,152.781-793.396,198.929c27.853,107.725,21.299,226.509-22.255,350.891
		c-4.232,12.151-8.738,23.893-13.38,35.499c-10.104,25.122-38.502,37.273-63.625,27.17c-25.122-10.104-37.273-38.502-27.17-63.625
		c4.369-10.786,8.329-21.299,11.878-31.266c38.093-108.954,43.145-211.763,17.476-303.514
		c-195.789,28.809-398.131,47.514-606.754,55.296h-0.819L3771.324,5874.347z M6097.169,5070.848
		c-7.373,5.052-14.746,9.967-22.118,14.882c5.052,10.24,9.831,20.617,14.473,30.993c12.015-7.236,23.893-14.473,35.771-21.845
		c696.047-428.851,1235.627-1035.605,1604.54-1753.225c-0.273-10.65-14.473-24.576-32.495-37.41
		c-14.2-10.104-30.311-18.705-45.875-25.122c-10.104-4.232-19.524-7.373-27.853-9.421
		c-164.25,346.385-367.548,669.696-608.938,962.833l-0.956,1.092c-261.461,317.304-567.433,599.381-916.685,837.086
		L6097.169,5070.848z M5992.584,5139.797c-159.334,101.99-327.271,194.97-503.535,278.255
		c179.951-73.728,351.846-157.833,515.55-251.358C6000.776,5157.683,5996.681,5148.809,5992.584,5139.797z M6974.532,4126.993
		c226.236-282.078,417.246-591.736,571.938-922.556c13.107-28.126,42.325-38.502,78.916-33.724
		c18.295,2.321,40.687,8.738,63.215,18.022c22.119,9.148,45.056,21.436,65.399,35.908c49.971,35.772,85.743,85.879,70.042,144.999
		l-1.229,4.779l-2.594,5.052c-193.741,378.334-433.903,726.63-718.438,1035.605c0.273,2.321,0.273,4.642,0.137,7.1
		c-11.605,225.553-49.971,451.243-116.463,672.154c-64.581,214.494-155.785,424.892-274.705,626.824l-3.55,6.007l-0.137,0.137
		c-399.906,675.294-1035.196,1125.717-1739.708,1307.989c-706.697,182.818-1483.162,96.12-2161.869-303.514l-6.008-3.55l0,0
		c-347.341-205.755-635.153-473.498-857.429-780.834c-232.516-321.399-393.626-685.943-476.638-1068.1
		c-5.734-26.488,11.059-52.565,37.547-58.3c16.794-3.687,33.314,1.775,44.783,12.971c334.37,304.196,658.091,477.73,1120.529,385.16
		c474.59-95.027,1097.318-464.759,2024.38-1249.143c314.709-266.24,751.206-360.312,1173.094-323.857
		c432.811,37.41,852.104,212.719,1108.924,480.87H6974.532z M2094.968,3121.425c7.373-5.052,14.746-9.967,22.118-14.882
		c-5.052-10.24-9.831-20.616-14.473-30.993c-12.015,7.236-23.893,14.473-35.908,21.845
		C1370.658,3526.246,831.078,4133,462.165,4850.62c0.273,10.65,14.473,24.576,32.495,37.41
		c14.199,10.104,30.31,18.705,45.875,25.122c10.103,4.233,19.524,7.373,27.853,9.421
		c164.25-346.385,367.548-669.696,608.939-962.833l0.819-1.092c261.461-317.303,567.433-599.381,916.685-837.086L2094.968,3121.425z
		 M2199.552,3052.476c159.334-101.99,327.271-194.97,503.535-278.255c-179.951,73.728-351.846,157.833-515.55,251.358
		C2191.36,3034.59,2195.456,3043.465,2199.552,3052.476z M1217.604,4065.28c-226.236,282.078-417.246,591.736-571.938,922.556
		c-13.107,28.125-42.189,38.502-78.916,33.724c-18.295-2.321-40.687-8.738-63.215-18.022c-22.118-9.148-45.056-21.436-65.399-35.908
		c-49.971-35.772-85.743-85.879-70.042-144.999l1.229-4.779l2.594-5.051c193.741-378.334,433.903-726.631,718.438-1035.605
		c-0.273-2.321-0.273-4.642-0.137-7.1c11.605-225.553,49.971-451.243,116.463-672.154
		c64.58-214.494,155.785-424.892,274.705-626.824c399.77-678.844,1036.698-1131.315,1743.394-1314.133
		s1483.162-96.12,2161.869,303.514c350.208,206.165,639.932,475.273,863.573,784.384
		c232.516,321.399,393.625,685.943,476.638,1068.1c5.734,26.487-11.059,52.565-37.547,58.3c-16.793,3.687-33.314-1.775-44.783-12.97
		c-334.37-304.196-658.091-477.73-1120.529-385.161c-474.59,95.027-1097.318,464.76-2024.379,1249.144
		c-314.573,266.24-751.207,360.312-1173.094,323.857C1893.717,4508.74,1474.423,4333.432,1217.604,4065.28z" fill="#ffffff" style=""></path>
</g>
<desc>Created with Snap</desc><defs></defs></g><g><g transform="matrix(0.5,0,0,-0.5,0,0)"><path d="M492 1373L511 1358Q442 1274 386 1176Q331 1079 291 967Q251 856 230 729Q209 603 209 459Q209 391 214 316Q219 242 231 170Q244 99 265 34Q287 -30 321 -79Q355 -128 403 -157Q451 -185 516 -185Q576 -185 622 -146Q669 -106 704 -42Q672 24 648 96Q625 168 609 240Q594 313 586 384Q579 455 579 518Q579 547 580 591Q582 635 588 683Q594 732 605 781Q617 830 637 868Q657 907 686 931Q716 956 759 956Q798 956 826 932Q855 908 875 870Q895 833 908 785Q921 738 928 691Q936 645 938 604Q941 563 941 537Q941 480 933 413Q926 346 910 274Q895 203 872 130Q849 58 818 -9Q848 -56 883 -96Q918 -135 959 -164Q1001 -192 1048 -208Q1095 -223 1148 -223Q1229 -223 1292 -193Q1355 -162 1401 -110Q1447 -58 1478 12Q1510 82 1529 161Q1548 240 1556 324Q1564 408 1564 489Q1564 605 1542 720Q1521 836 1479 944Q1438 1053 1376 1151Q1315 1249 1234 1330Q1153 1411 1053 1471Q954 1531 837 1565L857 1589Q995 1558 1110 1492Q1225 1426 1317 1334Q1410 1242 1479 1129Q1549 1016 1595 891Q1642 766 1665 633Q1689 500 1689 369Q1689 288 1676 201Q1664 115 1637 32Q1610 -50 1567 -124Q1525 -197 1465 -253Q1405 -308 1325 -341Q1246 -373 1146 -373Q1081 -373 1024 -355Q967 -337 918 -305Q869 -272 827 -227Q786 -182 752 -128Q723 -171 690 -207Q657 -243 619 -269Q581 -294 538 -308Q496 -322 449 -322Q371 -322 312 -289Q254 -255 212 -201Q171 -146 144 -78Q118 -9 102 61Q87 131 81 196Q75 262 75 310Q75 623 180 890Q286 1158 492 1373ZM654 610Q654 553 660 489Q667 425 680 358Q694 291 714 224Q734 158 762 96Q779 149 791 205Q803 261 811 314Q819 368 822 416Q826 464 826 502Q826 560 820 621Q815 682 803 732Q791 782 771 814Q752 846 724 846Q708 846 696 831Q685 816 677 793Q670 771 665 743Q660 715 657 688Q655 662 654 641Q654 620 654 610ZM2391 295Q2391 225 2368 165Q2345 105 2303 61Q2261 17 2202 -8Q2144 -33 2073 -33Q2010 -33 1959 -10Q1909 14 1873 54Q1837 94 1818 147Q1799 201 1799 262Q1799 313 1813 359Q1828 405 1854 444Q1880 484 1916 517Q1952 551 1994 578L2006 569Q1964 520 1940 461Q1916 402 1916 336Q1916 288 1930 238Q1945 189 1973 148Q2001 107 2043 81Q2085 55 2139 55Q2173 55 2203 69Q2233 83 2255 107Q2278 131 2291 161Q2305 192 2305 225Q2305 257 2295 287Q2286 318 2269 344Q2252 371 2228 392Q2204 414 2176 428Q2160 436 2145 440Q2131 444 2114 449Q2107 450 2099 452Q2091 455 2084 458Q2077 462 2072 468Q2067 474 2067 483Q2067 501 2080 516Q2093 531 2111 542Q2129 554 2149 560Q2169 567 2184 567Q2235 567 2274 541Q2313 515 2339 475Q2365 435 2378 387Q2391 339 2391 295ZM3237 147L3246 143Q3228 103 3200 71Q3173 39 3141 16Q3109 -6 3075 -19Q3041 -31 3010 -31Q2952 -31 2912 -11Q2872 9 2847 43Q2822 77 2811 123Q2800 169 2800 221Q2800 261 2806 304Q2812 347 2823 387Q2825 393 2827 401Q2829 410 2829 416Q2829 421 2823 424Q2806 430 2787 435Q2768 441 2749 448Q2731 455 2714 464Q2698 473 2686 487Q2685 427 2666 365Q2647 304 2615 247Q2584 191 2542 142Q2500 93 2453 57L2443 67Q2472 99 2496 143Q2520 187 2537 235Q2554 283 2563 332Q2573 381 2573 424Q2573 446 2569 465Q2565 485 2560 503Q2556 521 2552 537Q2548 554 2548 571Q2548 599 2566 615Q2584 631 2612 631Q2627 631 2635 622Q2643 614 2649 602Q2655 590 2663 577Q2671 564 2686 555Q2705 544 2734 539Q2763 534 2795 530Q2827 526 2859 522Q2891 518 2916 508Q2942 499 2958 482Q2974 466 2974 438Q2974 424 2971 410Q2969 397 2964 385Q2952 343 2943 299Q2935 256 2935 213Q2935 176 2940 145Q2946 115 2961 93Q2976 71 3001 59Q3026 47 3065 47Q3121 47 3163 74Q3205 102 3237 147ZM4116 147L4122 143Q4106 110 4082 83Q4058 57 4028 38Q3998 20 3964 10Q3930 0 3893 0Q3815 0 3760 38Q3706 76 3669 137Q3642 107 3609 77Q3577 48 3540 25Q3504 3 3465 -11Q3426 -25 3387 -25Q3340 -25 3303 -6Q3266 13 3240 44Q3214 76 3200 116Q3186 157 3186 201Q3186 267 3215 334Q3245 401 3293 455Q3342 510 3405 544Q3468 578 3536 578Q3556 578 3571 574L3571 616Q3571 645 3573 693Q3575 741 3581 799Q3587 858 3596 922Q3606 987 3621 1050Q3637 1114 3658 1171Q3679 1229 3707 1272Q3735 1316 3771 1342Q3807 1368 3852 1368Q3905 1368 3938 1337Q3971 1306 3990 1260Q4009 1215 4015 1164Q4022 1113 4022 1073Q4022 1021 4012 952Q4002 884 3984 807Q3966 731 3941 651Q3916 571 3887 497Q3858 423 3824 359Q3791 296 3757 252Q3770 213 3788 180Q3807 147 3832 123Q3857 99 3889 85Q3921 72 3962 72Q4056 72 4116 147ZM3712 700Q3712 664 3712 616Q3712 569 3714 516Q3717 463 3723 407Q3730 352 3743 300Q3785 381 3820 477Q3855 574 3880 675Q3906 777 3920 878Q3934 979 3934 1069Q3934 1088 3932 1124Q3930 1160 3921 1195Q3912 1231 3894 1257Q3876 1284 3845 1284Q3821 1284 3802 1261Q3783 1239 3769 1201Q3755 1164 3745 1116Q3736 1068 3729 1016Q3723 964 3719 913Q3716 862 3714 818Q3713 775 3712 743Q3712 712 3712 700ZM3460 84Q3517 84 3565 106Q3614 128 3654 164Q3635 201 3621 243Q3608 286 3598 329Q3589 373 3583 417Q3578 461 3575 502Q3563 515 3545 523Q3527 532 3501 532Q3454 532 3417 506Q3381 481 3356 442Q3331 404 3318 358Q3305 313 3305 272Q3305 234 3313 199Q3322 165 3341 139Q3360 114 3389 99Q3419 84 3460 84ZM5699 -444L5703 -464Q5671 -489 5631 -498Q5591 -507 5549 -507Q5400 -507 5287 -462Q5174 -417 5090 -339Q5007 -261 4951 -156Q4895 -50 4860 71Q4826 193 4809 323Q4793 454 4789 583Q4786 712 4792 833Q4799 954 4810 1055Q4752 981 4700 877Q4648 773 4603 654Q4559 535 4521 409Q4483 284 4452 165Q4422 46 4398 -58Q4375 -162 4359 -236Q4357 -244 4354 -257Q4352 -270 4346 -282Q4341 -294 4332 -303Q4323 -311 4310 -311Q4298 -311 4287 -304Q4276 -296 4267 -286Q4258 -275 4251 -263Q4245 -250 4242 -239Q4212 -142 4197 -31Q4183 81 4177 195Q4172 310 4172 423Q4173 536 4173 637Q4173 749 4176 861Q4179 973 4187 1085Q4190 1125 4195 1174Q4201 1223 4218 1265Q4235 1307 4267 1335Q4299 1364 4355 1364Q4369 1364 4378 1357Q4388 1351 4388 1335L4388 1327Q4375 1208 4364 1093Q4353 979 4344 865Q4336 751 4331 635Q4327 520 4327 399Q4327 281 4332 162Q4337 44 4349 -74Q4386 96 4426 258Q4467 420 4519 575Q4571 731 4639 879Q4707 1027 4798 1169Q4806 1182 4818 1199Q4831 1217 4846 1232Q4862 1248 4879 1259Q4896 1270 4914 1270Q4936 1270 4948 1250Q4961 1230 4966 1203Q4972 1177 4973 1150Q4974 1123 4974 1108Q4967 1014 4957 897Q4948 780 4945 652Q4942 524 4948 392Q4955 260 4979 136Q5003 13 5049 -96Q5095 -204 5170 -285Q5246 -366 5354 -413Q5463 -460 5613 -460Q5634 -460 5656 -457Q5679 -453 5699 -444ZM6049 147L6055 143Q6038 108 6009 76Q5980 44 5944 18Q5908 -7 5868 -22Q5828 -37 5789 -37Q5735 -37 5699 -5Q5664 28 5647 74Q5608 35 5561 9Q5514 -16 5457 -16Q5406 -16 5366 2Q5327 21 5301 53Q5275 85 5261 127Q5248 169 5248 217Q5248 271 5263 322Q5278 374 5305 420Q5332 467 5369 507Q5406 547 5449 578L5461 569Q5419 509 5394 436Q5369 364 5369 289Q5369 257 5376 221Q5383 185 5399 154Q5415 123 5441 102Q5468 82 5508 82Q5542 82 5573 93Q5604 105 5633 125Q5631 137 5630 148Q5629 160 5629 172Q5629 220 5643 276Q5657 332 5680 387Q5703 443 5732 493Q5762 544 5793 580L5805 571Q5782 494 5767 412Q5752 330 5752 250Q5752 214 5756 180Q5761 147 5775 120Q5790 94 5816 78Q5842 63 5885 63Q5933 63 5975 87Q6017 112 6049 147ZM7173 147L7179 143Q7161 107 7136 73Q7111 40 7080 14Q7049 -12 7011 -28Q6974 -43 6930 -43Q6868 -43 6829 -1Q6790 41 6765 108Q6741 176 6727 261Q6713 347 6703 434Q6680 393 6660 348Q6641 304 6623 255Q6605 206 6587 154Q6569 102 6548 47Q6543 35 6537 20Q6531 6 6521 -8Q6512 -21 6499 -30Q6486 -39 6468 -39Q6455 -39 6445 -33Q6435 -27 6427 -19Q6420 -10 6414 0Q6409 11 6405 20Q6385 65 6373 112Q6361 159 6352 209Q6344 259 6338 315Q6332 371 6326 434Q6305 385 6288 340Q6272 296 6256 251Q6241 207 6225 159Q6210 112 6193 57Q6189 44 6184 29Q6180 15 6173 3Q6167 -9 6156 -17Q6146 -25 6130 -25Q6104 -25 6092 -9Q6080 8 6072 30Q6060 60 6049 113Q6038 167 6029 230Q6020 293 6015 360Q6010 427 6010 485Q6010 541 6040 567Q6070 594 6119 594Q6122 594 6128 594Q6134 594 6140 592Q6146 591 6150 588Q6155 585 6154 580Q6145 510 6142 447Q6139 384 6140 324Q6141 265 6146 207Q6152 150 6161 90Q6178 147 6194 199Q6211 251 6229 302Q6247 353 6267 405Q6288 458 6312 516Q6325 546 6339 558Q6354 570 6377 570Q6406 570 6422 548Q6439 526 6444 498Q6452 447 6458 393Q6464 340 6471 286Q6478 232 6488 179Q6498 127 6514 78Q6534 130 6554 186Q6574 243 6595 300Q6616 357 6639 412Q6663 467 6690 516Q6703 539 6719 554Q6736 570 6761 570Q6775 570 6786 563Q6797 557 6805 546Q6813 536 6818 523Q6823 511 6825 498Q6830 469 6834 423Q6839 377 6846 325Q6854 273 6865 220Q6876 168 6893 125Q6910 83 6934 56Q6958 29 6992 29Q7020 29 7046 39Q7072 50 7095 66Q7118 83 7137 104Q7157 126 7173 147ZM7611 524Q7611 513 7603 504Q7595 496 7584 496Q7575 496 7565 501Q7555 507 7542 514Q7530 521 7513 526Q7497 532 7476 532Q7427 532 7388 501Q7350 471 7323 426Q7297 381 7283 330Q7269 279 7269 238Q7269 209 7274 181Q7279 154 7291 131Q7304 109 7326 95Q7348 82 7382 82Q7418 82 7451 95Q7484 109 7513 131Q7514 163 7523 198Q7533 234 7548 268Q7563 303 7582 334Q7602 365 7623 389L7636 381Q7625 347 7620 311Q7615 275 7615 240Q7615 204 7621 172Q7627 140 7642 116Q7657 93 7683 79Q7709 66 7750 66Q7800 66 7842 89Q7884 112 7916 147L7924 143Q7906 108 7877 76Q7848 44 7812 18Q7777 -7 7737 -22Q7697 -37 7658 -37Q7603 -37 7568 -6Q7533 26 7520 74Q7478 32 7426 3Q7375 -25 7318 -25Q7276 -25 7243 -10Q7211 6 7189 32Q7167 58 7155 93Q7144 129 7144 168Q7144 213 7158 260Q7173 308 7198 354Q7224 400 7259 441Q7294 482 7335 513Q7377 544 7423 562Q7469 580 7517 580Q7528 580 7544 577Q7560 575 7575 569Q7590 563 7600 552Q7611 541 7611 524Z" fill="#ffffff" style=""></path></g></g></g></svg>