<svg version="1.1" xmlns="http://www.w3.org/2000/svg" viewBox="-1042.4244750244702 -2940.893179499125 5740.342524812471 4435.611203049569"><desc>Created with Snap</desc><defs></defs><g><g transform="matrix(13.0977,0,0,13.0977,-841.714,-3366.1345)">
<g id="gSkvcsn7hrnq">
	<path d="M317.9281,155.65147c-30.98956,7.31404-46.23932-11.77283-62.95764-64.39297
		c-22.81844-71.81998-97.04111-20.6673-137.30415,34.09873c-36.01472,48.98745-100.43337,28.2066-108.71796,96.60006
		C1.05756,287.09979,51.2933,341.39026,114.88862,347.1629c44.93644,4.07898,74.15717-17.45844,113.5048-32.92603
		c50.53844-19.86673,37.44051-0.93326,86.27327,8.58145c60.94122,11.87393,88.18268-44.41559,84.49582-82.9597
		S385.17041,139.7812,317.9281,155.65147z" fill="#85421e" style=""></path>
</g>


<desc>Created with Snap</desc><defs></defs></g><g><g transform="matrix(0.5,0,0,-0.5,0,0)"><path d="M995 1200L995 268Q995 178 972 116Q950 54 914 15Q878 -23 832 -40Q787 -57 741 -57Q727 -57 704 -55Q682 -52 655 -43Q628 -34 600 -17Q573 0 549 29Q528 0 503 -17Q478 -34 453 -43Q429 -52 408 -55Q387 -57 373 -57Q325 -57 281 -40Q237 -23 202 15Q168 54 147 116Q127 178 127 268L127 1200Q127 1239 122 1266Q118 1293 109 1311Q100 1330 86 1341Q73 1352 55 1358Q47 1361 47 1366Q47 1373 59 1384Q72 1396 91 1407Q110 1418 133 1426Q157 1434 178 1434Q197 1434 216 1424Q236 1414 251 1389Q267 1365 277 1324Q287 1283 287 1221L287 248Q287 189 298 157Q309 126 324 111Q340 97 356 94Q373 92 383 92Q395 92 411 94Q428 97 443 113Q459 130 470 166Q481 202 481 268L481 1272Q481 1287 479 1297Q478 1307 476 1314Q475 1321 474 1326Q473 1332 473 1337Q473 1353 489 1362Q505 1372 526 1372Q577 1372 609 1345Q641 1319 641 1282L641 248Q641 189 652 157Q663 126 678 111Q693 97 709 94Q726 92 737 92Q747 92 764 94Q781 97 797 111Q813 126 824 157Q836 189 836 248L836 1221Q836 1283 845 1324Q855 1365 870 1389Q886 1414 905 1424Q924 1434 942 1434Q964 1434 987 1426Q1011 1418 1030 1407Q1050 1396 1062 1384Q1075 1373 1075 1366Q1075 1361 1067 1358Q1047 1352 1033 1341Q1020 1330 1011 1311Q1003 1293 999 1266Q995 1239 995 1200ZM1943 338Q1945 350 1956 358Q1968 366 1983 369Q1998 372 2014 369Q2031 366 2043 355Q2056 345 2061 326Q2067 308 2060 279Q2051 237 2030 200Q2010 164 1979 136Q1948 108 1906 92Q1864 76 1812 76Q1784 76 1759 79Q1735 82 1712 90Q1674 24 1614 -17Q1554 -57 1466 -57Q1388 -57 1332 -27Q1276 4 1239 56Q1202 109 1184 178Q1167 247 1167 324Q1167 437 1193 526Q1220 616 1255 678Q1290 741 1324 774Q1359 807 1376 807Q1396 807 1412 789Q1429 772 1436 748Q1444 725 1440 701Q1437 677 1417 664Q1405 645 1388 620Q1372 595 1357 557Q1343 520 1333 466Q1323 412 1323 336Q1323 271 1334 223Q1346 175 1366 142Q1387 110 1413 94Q1440 78 1470 78Q1514 78 1542 99Q1571 121 1591 156Q1519 218 1481 313Q1444 409 1444 520Q1444 568 1454 611Q1465 655 1485 688Q1506 721 1537 740Q1568 760 1609 760Q1645 760 1677 734Q1709 708 1733 662Q1757 616 1770 553Q1784 490 1784 416Q1784 359 1777 303Q1770 247 1755 195Q1766 191 1775 190Q1785 190 1796 190Q1829 190 1854 202Q1880 214 1898 234Q1916 254 1927 281Q1938 308 1943 338ZM1552 528Q1552 459 1573 397Q1595 335 1630 289Q1636 338 1636 383Q1636 435 1634 479Q1633 524 1627 556Q1622 588 1612 606Q1603 625 1587 625Q1552 625 1552 528ZM2390 -57Q2354 -57 2316 -46Q2279 -35 2248 -8Q2218 19 2198 63Q2179 108 2179 176Q2179 275 2205 385Q2232 496 2282 629L2126 629L2103 629Q2102 599 2099 553Q2097 507 2091 455Q2085 403 2075 350Q2066 297 2052 252Q2042 220 2020 215Q1999 210 1978 222Q1957 235 1944 259Q1931 283 1938 309Q1946 340 1952 384Q1958 429 1961 478Q1965 528 1967 577Q1969 627 1970 666Q1932 687 1907 719Q1882 752 1882 797Q1882 818 1890 835Q1899 853 1913 865Q1927 878 1946 884Q1965 891 1985 891Q2003 891 2022 886Q2042 881 2059 868Q2077 855 2091 834Q2105 813 2114 782Q2139 779 2156 777Q2174 776 2186 775Q2198 774 2206 774Q2214 774 2222 774L2329 774Q2338 774 2355 763Q2373 752 2390 734Q2407 717 2418 697Q2430 677 2427 659Q2427 653 2420 630Q2413 607 2403 572Q2393 537 2381 491Q2369 446 2359 396Q2349 346 2342 292Q2335 239 2335 188Q2335 167 2340 147Q2345 127 2355 111Q2365 96 2380 87Q2396 78 2417 78Q2452 78 2477 100Q2502 122 2519 155Q2536 188 2546 226Q2557 265 2564 299Q2570 331 2584 345Q2598 360 2613 360Q2625 360 2638 352Q2651 345 2661 333Q2672 321 2678 306Q2685 291 2685 276Q2685 271 2684 268Q2683 265 2683 262Q2669 211 2646 155Q2624 99 2589 52Q2554 5 2505 -26Q2456 -57 2390 -57ZM2802 -57Q2742 -57 2693 -36Q2644 -15 2609 26Q2575 68 2556 129Q2538 191 2538 272Q2538 390 2571 482Q2604 575 2661 641Q2718 708 2793 747Q2868 787 2952 799L2952 1262Q2952 1284 2948 1297Q2945 1310 2941 1317Q2938 1325 2934 1329Q2931 1334 2931 1339Q2931 1345 2937 1349Q2943 1353 2953 1356Q2963 1359 2974 1360Q2986 1362 2997 1362Q3048 1362 3077 1335Q3107 1309 3107 1272L3107 172Q3107 155 3111 138Q3115 122 3123 108Q3132 95 3145 86Q3159 78 3177 78Q3208 78 3230 100Q3253 122 3269 155Q3286 188 3296 226Q3307 265 3314 299Q3320 331 3334 345Q3348 360 3363 360Q3375 360 3388 352Q3401 345 3411 333Q3422 321 3428 306Q3435 291 3435 276Q3435 274 3435 271Q3435 268 3433 262Q3420 211 3397 155Q3375 99 3339 52Q3304 5 3255 -26Q3206 -57 3140 -57Q3087 -57 3047 -35Q3007 -13 2984 23Q2950 -12 2905 -35Q2861 -57 2802 -57ZM2833 78Q2873 78 2902 101Q2932 124 2952 158L2952 664Q2902 655 2855 630Q2809 606 2773 562Q2738 518 2717 450Q2696 383 2696 287Q2696 231 2707 191Q2719 152 2737 127Q2756 102 2781 90Q2806 78 2833 78ZM3945 1348L3945 1180Q3976 1233 4011 1279Q4047 1325 4087 1359Q4127 1394 4169 1414Q4212 1434 4257 1434Q4278 1434 4302 1425Q4327 1416 4348 1395Q4369 1375 4382 1340Q4396 1306 4396 1255L4396 61Q4396 23 4403 -3Q4411 -28 4421 -45Q4432 -62 4445 -72Q4458 -82 4468 -90Q4479 -98 4486 -105Q4494 -112 4494 -123Q4494 -135 4486 -147Q4479 -159 4465 -170Q4452 -180 4433 -187Q4414 -193 4390 -193Q4367 -193 4340 -183Q4314 -173 4291 -148Q4268 -122 4252 -80Q4237 -38 4236 27L4236 1243Q4236 1263 4230 1267Q4224 1272 4218 1272Q4202 1272 4176 1247Q4150 1223 4119 1183Q4089 1143 4058 1091Q4027 1040 4002 985Q3977 930 3961 876Q3945 823 3945 780L3945 -10Q3945 -36 3928 -47Q3911 -57 3888 -57Q3870 -57 3852 -52Q3834 -47 3819 -39Q3805 -31 3795 -21Q3786 -10 3786 2L3786 1274Q3717 1265 3655 1235Q3594 1205 3548 1153Q3503 1101 3476 1027Q3450 953 3450 856Q3450 794 3463 744Q3476 695 3494 660Q3512 626 3530 607Q3548 588 3558 588Q3567 588 3575 592Q3583 596 3591 596Q3607 596 3607 571Q3607 545 3597 520Q3588 496 3572 477Q3556 459 3536 447Q3517 436 3497 436Q3471 436 3435 468Q3399 500 3366 556Q3334 612 3311 689Q3288 766 3288 856Q3288 964 3314 1049Q3340 1135 3383 1199Q3427 1263 3485 1308Q3543 1353 3607 1381Q3671 1409 3737 1421Q3803 1434 3863 1434Q3879 1434 3894 1427Q3909 1421 3920 1409Q3931 1398 3938 1382Q3945 1366 3945 1348ZM5148 -57Q5113 -57 5084 -46Q5056 -35 5034 -16Q5013 4 4999 30Q4985 57 4980 88Q4943 23 4893 -18Q4843 -59 4775 -59Q4724 -59 4683 -38Q4643 -17 4615 21Q4587 60 4572 114Q4558 169 4558 236Q4558 317 4569 399Q4581 481 4595 547Q4611 624 4632 696Q4637 709 4639 722Q4642 736 4651 747Q4660 758 4679 765Q4699 772 4740 772Q4778 772 4789 758Q4800 745 4797 727Q4795 709 4785 690Q4776 671 4773 659Q4759 602 4748 555Q4737 508 4729 460Q4722 413 4718 361Q4714 310 4714 246Q4714 162 4738 119Q4763 76 4808 76Q4839 76 4865 99Q4892 122 4913 160Q4935 199 4951 248Q4967 298 4976 352L4976 682Q4976 704 4972 717Q4969 730 4965 737Q4962 745 4958 749Q4955 754 4955 760Q4955 765 4961 769Q4967 773 4977 776Q4987 779 4998 780Q5010 782 5021 782Q5072 782 5101 755Q5131 729 5131 692L5131 172Q5131 165 5132 149Q5133 134 5138 118Q5143 102 5154 90Q5165 78 5185 78Q5216 78 5238 100Q5261 122 5277 155Q5294 188 5304 226Q5315 265 5322 299Q5328 331 5342 345Q5356 360 5371 360Q5383 360 5396 352Q5409 345 5419 333Q5430 321 5436 306Q5443 291 5443 276Q5443 274 5443 271Q5443 268 5441 262Q5427 211 5404 155Q5382 99 5347 52Q5312 5 5263 -26Q5214 -57 5148 -57ZM6552 262Q6538 211 6515 155Q6493 99 6458 52Q6423 5 6374 -26Q6325 -57 6259 -57Q6218 -57 6186 -42Q6155 -26 6132 0Q6110 26 6098 61Q6087 96 6087 135L6087 551Q6087 575 6086 596Q6085 617 6081 633Q6077 649 6069 658Q6062 668 6049 668Q6028 668 5998 638Q5968 608 5940 560Q5912 512 5890 451Q5868 391 5864 330L5864 31Q5864 16 5863 0Q5863 -15 5857 -28Q5852 -40 5840 -49Q5829 -57 5807 -57Q5792 -57 5774 -54Q5757 -50 5742 -41Q5728 -31 5718 -14Q5709 4 5709 33L5709 551Q5709 575 5707 596Q5706 617 5702 633Q5698 649 5690 658Q5683 668 5670 668Q5649 668 5619 638Q5590 608 5561 560Q5533 512 5511 451Q5490 391 5485 330L5485 31Q5485 16 5484 0Q5484 -15 5478 -28Q5473 -40 5461 -49Q5450 -57 5428 -57Q5413 -57 5395 -54Q5378 -50 5363 -41Q5349 -31 5339 -14Q5330 4 5330 33L5330 682Q5330 711 5325 724Q5321 737 5321 748Q5321 763 5337 772Q5353 782 5375 782Q5426 782 5455 755Q5485 729 5485 692L5485 606Q5505 648 5528 684Q5552 720 5579 746Q5606 773 5636 788Q5667 803 5702 803Q5748 803 5778 786Q5809 769 5827 741Q5846 713 5854 678Q5862 644 5864 610Q5883 651 5906 686Q5929 721 5956 747Q5983 773 6013 788Q6044 803 6079 803Q6129 803 6161 784Q6193 765 6211 735Q6229 705 6236 668Q6243 631 6243 596L6243 172Q6243 165 6244 149Q6245 134 6250 118Q6255 102 6265 90Q6276 78 6296 78Q6327 78 6349 100Q6372 122 6388 155Q6405 188 6416 226Q6427 265 6434 299Q6440 331 6453 345Q6467 360 6483 360Q6495 360 6507 352Q6520 345 6530 333Q6541 321 6547 306Q6554 291 6554 276Q6554 274 6554 271Q6554 268 6552 262ZM7021 78Q7052 78 7074 100Q7097 122 7113 155Q7130 188 7140 226Q7151 265 7158 299Q7165 331 7178 345Q7192 360 7208 360Q7220 360 7232 352Q7245 345 7255 333Q7266 321 7272 306Q7279 291 7279 276Q7279 274 7279 271Q7279 268 7277 262Q7264 211 7241 155Q7219 99 7184 52Q7149 5 7099 -26Q7050 -57 6984 -57Q6930 -57 6890 -34Q6850 -11 6827 27Q6796 -8 6752 -33Q6709 -57 6651 -57Q6591 -57 6545 -33Q6500 -9 6469 32Q6438 74 6422 130Q6407 187 6407 252Q6407 380 6448 482Q6489 584 6557 655Q6625 727 6712 765Q6800 803 6894 803Q6936 803 6962 780Q6988 757 6988 717Q6988 691 6982 680Q6977 670 6962 670Q6948 670 6933 672Q6918 674 6902 674Q6844 674 6784 648Q6724 623 6675 570Q6627 518 6596 437Q6565 357 6565 246Q6565 165 6596 121Q6627 78 6681 78Q6723 78 6751 109Q6779 141 6796 184L6796 500Q6796 515 6794 525Q6793 535 6791 542Q6790 549 6789 554Q6788 560 6788 565Q6788 581 6803 590Q6819 600 6841 600Q6892 600 6922 573Q6952 547 6952 510L6952 172Q6952 155 6956 138Q6960 122 6968 108Q6976 95 6989 86Q7003 78 7021 78Z" fill="#fdc48b" style=""></path></g></g></g></svg>